<?xml version="1.0" encoding="iso-8859-1"?>
<!-- Generator: Adobe Illustrator 18.0.0, SVG Export Plug-In . SVG Version: 6.00 Build 0)  -->
<!DOCTYPE svg PUBLIC "-//W3C//DTD SVG 1.1//EN" "http://www.w3.org/Graphics/SVG/1.1/DTD/svg11.dtd">
<svg version="1.1" id="Capa_1" xmlns="http://www.w3.org/2000/svg" xmlns:xlink="http://www.w3.org/1999/xlink" x="0px" y="0px"
	 viewBox="0 0 460.529 460.529" style="enable-background:new 0 0 460.529 460.529;" xml:space="preserve">
<g id="XMLID_13_">
	<path id="XMLID_14_" d="M136.854,317.214v120.721c0,12.478,10.115,22.593,22.593,22.593c12.478,0,22.593-10.115,22.593-22.593
		V330.176c-0.616,0.016-1.232,0.036-1.852,0.036C165.326,330.212,150.33,325.583,136.854,317.214z"/>
	<path id="XMLID_2123_" d="M274.2,332.125c-0.162-3.442-1.109-6.802-2.769-9.822l-28.302-51.485
		c-1.58,19.03-10.047,35.465-23.898,46.316c-0.513,0.402-1.037,0.786-1.561,1.17l11.64,21.176l4.682,99.518
		c0.569,12.102,10.561,21.531,22.55,21.531c0.358,0,0.718-0.008,1.08-0.025c12.463-0.586,22.092-11.166,21.506-23.63L274.2,332.125z
		"/>
	<circle id="XMLID_2124_" cx="186.912" cy="39.02" r="39.02"/>
	<path id="XMLID_2125_" d="M326.963,163.113l-35.661,27.938c0.163,0.602,0.313,1.203,0.459,1.804l54.34-27.627
		C339.437,166.854,332.673,165.948,326.963,163.113z"/>
	<path id="XMLID_2126_" d="M366.239,116.996l-3.696-4.718l1.837-1.439c5.435-4.257,6.388-12.114,2.131-17.549
		c-0.005-0.007-0.012-0.013-0.017-0.02c-4.213-5.355-12.079-6.383-17.532-2.111l-1.837,1.439c-2.456-3.135-7.984-12.72-16.955-6.972
		c-4.987,3.198-6.108,9.963-2.485,14.589l3.696,4.718l-3.148,2.466c-5.694-7.268-2.902-3.705-3.723-4.748
		c-3.435-4.348-9.731-5.029-14.013-1.675c-4.365,3.42-5.067,9.747-1.705,14.039l3.696,4.718l-58.184,45.584
		c-0.022-0.019-0.045-0.036-0.067-0.055c-19.066-16.188-46.35-18.339-59.416,1.527c-3.339,5.077-4.513,12.392-13.874,18.08
		l15.196,10.731c2.314,1.634,4.398,3.506,6.243,5.565c0.109-0.09,0.206-0.188,0.318-0.276c7.095-5.559,17.353-4.313,22.911,2.782
		c5.559,7.095,4.313,17.353-2.782,22.911c-3.342,2.618-7.384,3.709-11.308,3.407c-0.695,6.072-2.9,11.908-6.523,17.039
		c-5.71,8.086-14.409,13.466-24.021,15.091l3.814,4.868c3.406,4.347,2.643,10.633-1.705,14.039
		c-4.345,3.405-10.632,2.644-14.039-1.705l-21.928-27.99l-38.243-27.005c-3.955,20.159,3.317,41.881,16.095,58.191
		c0.001,0.001,0.002,0.003,0.004,0.004c20.52,26.188,57.622,40.348,83.105,20.383c17.363-13.603,16.55-33.534,17.827-38.609
		c2.595-10.314,11.125-18.623,22.265-20.408c6.817-1.092,13.102-4.195,18.014-9.321c12.343-12.881,11.568-33.505,3.533-49.572
		l58.184-45.584l3.696,4.717c3.397,4.336,9.703,5.102,14.04,1.705c4.273-3.348,5.158-9.631,1.705-14.04l-3.696-4.717l3.148-2.466
		l3.696,4.718c3.398,4.337,9.685,5.116,14.039,1.705C368.942,127.581,369.59,121.274,366.239,116.996z"/>
	<path id="XMLID_2127_" d="M163.999,241.125c8.524,6.019,20.278,3.924,26.239-4.52c5.998-8.494,3.975-20.242-4.52-26.239
		c-1.809-1.277-32.419-22.892-56.628-39.988c0.235-29.276,0.138-17.176,0.284-35.38c0.011-2.06,1.686-3.723,3.745-3.717
		c2.059,0.006,3.725,1.677,3.725,3.736v18.711l23.039,16.269c0,0,6.31,0.81,6.828,0.81c3.762,0,7.142-2.241,8.61-5.71
		c3.395-8.019,8.508-14.742,15.195-19.981c8.901-6.973,19.874-10.659,31.732-10.658c4.777,0,9.579,0.599,14.32,1.752
		c0-2.018,1.502-3.72,3.505-3.971c2.002-0.251,3.878,1.029,4.375,2.984c0.265,1.041,0.416,2.234,0.412,3.6
		c2.963,1.15,5.882,2.512,8.73,4.092l25.758-20.18c-7.066-19.848-22.798-32.258-41.8-32.258H136.275
		c-24.444,0-44.431,19.887-44.554,44.274l-0.108,13.456l-0.255,31.717c-0.049,6.135,2.95,11.989,7.967,15.531
		C106.455,200.49,157.032,236.205,163.999,241.125z"/>
</g>
</svg>
