<?xml version="1.0" encoding="iso-8859-1"?>
<!-- Generator: Adobe Illustrator 18.0.0, SVG Export Plug-In . SVG Version: 6.00 Build 0)  -->
<!DOCTYPE svg PUBLIC "-//W3C//DTD SVG 1.1//EN" "http://www.w3.org/Graphics/SVG/1.1/DTD/svg11.dtd">
<svg version="1.1" id="Capa_1" xmlns="http://www.w3.org/2000/svg" xmlns:xlink="http://www.w3.org/1999/xlink" x="0px" y="0px"
	 viewBox="0 0 456.565 456.565" style="enable-background:new 0 0 456.565 456.565;" xml:space="preserve">
<g id="XMLID_462_">
	<path id="XMLID_463_" d="M206.374,281.766c19.697,19.697,16.555,16.555,23.356,23.356c8.807-8.807,8.632-8.632,23.356-23.356
		C235.118,281.766,223.579,281.766,206.374,281.766z"/>
	<path id="XMLID_1104_" d="M201.921,456.565c0.009,0,0.018,0,0.027,0c12.521,0,22.68-10.143,22.695-22.668l0.046-38.88
		l-44.678,44.678C182.582,449.396,191.411,456.552,201.921,456.565z"/>
	<polygon id="XMLID_1105_" points="179.346,355.507 187.303,347.55 179.365,339.611 	"/>
	<path id="XMLID_1107_" d="M234.634,433.869c0,12.534,10.161,22.695,22.695,22.695c10.571,0,19.455-7.228,21.977-17.012
		l-44.673-44.673V433.869z"/>
	<polygon id="XMLID_1108_" points="280.024,339.682 272.157,347.55 280.024,355.417 	"/>
	<circle id="XMLID_1111_" cx="229.73" cy="39.197" r="39.197"/>
	<path id="XMLID_1112_" d="M201.446,361.692l-76.867,76.867c-3.905,3.905-3.905,10.237,0,14.142c3.906,3.905,10.237,3.905,14.143,0
		l76.867-76.867L201.446,361.692z"/>
	<polygon id="XMLID_1113_" points="281.371,281.766 243.872,319.265 258.015,333.408 309.656,281.766 	"/>
	<path id="XMLID_1119_" d="M178.09,281.766h-28.285l170.935,170.935c3.908,3.906,10.236,3.905,14.143,0
		c3.905-3.905,3.905-10.237,0-14.142L178.09,281.766z"/>
	<path id="XMLID_1127_" d="M353.484,223.941c-8.387,0-72.112,0-80.008,0c0.809-0.244,1.611-0.539,2.4-0.899l62.16-28.371
		c10.181-4.647,14.115-17.077,8.485-26.732c-15.398-26.34-20.461-34.857-25.494-43.387c-7.908-13.405-19.859-33.663-44.36-33.663
		c-9.738,0-85.428,0-94.778,0c-24.502,0-36.453,20.259-44.36,33.665c-9.323,15.777-13.914,23.576-25.494,43.385
		c-0.027,0.046-0.047,0.096-0.073,0.143c-5.445,9.538-1.655,21.857,8.47,26.543c0.03,0.014,0.058,0.033,0.089,0.046l62.161,28.371
		c0.79,0.36,1.592,0.655,2.401,0.899c-16.55,0-64.408,0-82,0h0c-10.445,0-18.913,8.468-18.913,18.913
		c0,10.356,8.371,18.913,18.913,18.913h250.404c10.461,0,18.913-8.484,18.913-18.913
		C372.397,232.409,363.93,223.941,353.484,223.941z M232.949,223.941c-0.337-0.641-0.673-1.283-0.976-1.947
		c-1.466-3.212-2.466-6.555-3.02-9.948c-0.554,3.393-1.554,6.735-3.02,9.947c-0.303,0.664-0.639,1.307-0.977,1.948h0h-28.975
		c5.214-1.571,9.728-5.367,12.009-10.829c3.964-9.49-0.701-20.417-10.057-24.687c-29.191-13.323-12.944-5.908-42.662-19.472
		l24.165-38.808v27.853l27.255,12.439c12.076,5.512,20.187,16.544,22.262,29.159c2.076-12.616,10.189-23.648,22.262-29.159
		l28.398-12.961v-26.83l23.535,38.073l-43.181,19.709c-9.356,4.27-14.015,15.194-10.051,24.684
		c2.281,5.462,6.796,9.258,12.009,10.829H232.949z"/>
</g>
</svg>
